<svg width="24" height="24" viewBox="0 0 24 24" fill="none" xmlns="http://www.w3.org/2000/svg">
<g id="Iconly/Curved/Activity">
<g id="Group 432">
<path id="Path" d="M9.07422 20.6113C9.28858 21.9653 10.4554 23.0002 11.8626 23.0002C13.2697 23.0002 14.4365 21.9653 14.6509 20.6113C13.8047 20.686 12.8767 20.7294 11.8626 20.7294C10.8483 20.7294 9.9204 20.686 9.07422 20.6113Z" fill="#C6CEDD"/>
<path id="Path_2" d="M18.6434 14.0999L18.6435 14.1L20.0785 16.0233C20.0785 16.0233 20.0785 16.0233 20.0785 16.0233C20.2348 16.2329 20.2718 16.4555 20.2388 16.6236C20.2082 16.7795 20.1155 16.9142 19.9295 16.9949L19.9295 16.9949C18.5179 17.6073 15.8351 18.4161 11.5 18.4161C7.16489 18.4161 4.48207 17.6073 3.07047 16.9949L3.07045 16.9949C2.88448 16.9143 2.79179 16.7795 2.76118 16.6236C2.72815 16.4555 2.76519 16.2329 2.92151 16.0233C2.92152 16.0233 2.92153 16.0233 2.92154 16.0233L4.35651 14.1L4.35653 14.0999C5.08175 13.1278 5.47346 11.946 5.47346 10.7318V7.8123C5.47346 4.46046 8.17535 1.75 11.5 1.75C14.8247 1.75 17.5266 4.46046 17.5266 7.8123V10.7318C17.5266 11.946 17.9183 13.1278 18.6434 14.0999Z" fill="white" stroke="#C6CEDD" stroke-width="1.5"/>
</g>
</g>
</svg>
